<svg width="33" height="33" viewBox="0 0 33 33" fill="none" xmlns="http://www.w3.org/2000/svg">
<rect width="33" height="33" rx="16.5" fill="#E4A30B"/>
<path d="M20.1291 11.985L19.5769 12.3039L16.6122 9.81301C16.3674 9.60784 16.0655 9.48269 15.7473 9.45444C15.4291 9.42619 15.11 9.4962 14.8328 9.65503L13.7552 10.2772C13.3848 10.491 13.2567 10.9691 13.4706 11.3395C13.6845 11.7099 14.1625 11.838 14.5329 11.6241L15.6105 11.002L18.1491 13.1282L14.9097 14.9985L14.2784 14.465L14.339 14.43C14.7094 14.2161 14.8375 13.7381 14.6236 13.3677C14.4098 12.9973 13.9317 12.8692 13.5613 13.083L11.5543 14.2418C11.1839 14.4556 11.0558 14.9337 11.2697 15.3041C11.4836 15.6745 11.9616 15.8026 12.332 15.5887L12.8371 15.2971L16.007 17.9568L15.5558 18.2173C14.3924 16.8866 12.4914 16.5024 10.8727 17.3382C8.93248 18.3327 8.18844 20.8545 9.27717 22.7403C10.3659 24.626 12.703 25.2522 14.5887 24.1635C16.2455 23.207 16.9286 21.295 16.3335 19.5643L19.1621 17.9312C20.3255 19.262 22.2265 19.6461 23.8452 18.8103C25.7815 17.8091 26.5294 15.294 25.4368 13.4015C24.352 11.5225 22.0149 10.8963 20.1291 11.985ZM13.7069 21.0808L14.9326 20.3731C15.128 21.3648 14.6638 22.3961 13.6725 22.8876C12.634 23.4063 11.309 23.0399 10.6786 22.0569C9.95097 20.9055 10.3129 19.4484 11.4781 18.7757C12.3738 18.2585 13.4306 18.3937 14.155 19.0261L12.9292 19.7338C12.5588 19.9477 12.4307 20.4257 12.6446 20.7961C12.8584 21.1665 13.3365 21.2946 13.7069 21.0808ZM18.3844 16.5842L17.4415 17.1286L16.1722 16.0655L18.2129 14.8873C18.1421 15.449 18.1871 16.0247 18.3844 16.5842ZM23.159 17.4195C22.0985 17.9779 20.7136 17.6012 20.084 16.5728C19.6972 15.9341 19.6467 15.2089 19.8735 14.5751L20.952 15.479C21.2822 15.7553 21.7711 15.7155 22.0474 15.3853C22.3237 15.0552 22.2839 14.5663 21.9538 14.29L20.8568 13.3698L20.8596 13.3592C21.1243 13.1941 21.4198 13.0844 21.7281 13.0366C22.0364 12.9888 22.3511 13.004 22.6534 13.0813C22.9556 13.1586 23.2391 13.2963 23.4867 13.4861C23.7342 13.676 23.9407 13.9141 24.0937 14.1859C24.7625 15.3443 24.3542 16.7834 23.159 17.4195Z" fill="black"/>
</svg>
